<svg id="Layer_1" data-name="Layer 1" xmlns="http://www.w3.org/2000/svg" viewBox="0 0 1000 420"><defs><style>.cls-1{fill:#fff;}.cls-2{fill:#62a6d3;}.cls-3{fill:#231f20;}</style></defs><title>makgil_logo</title><path class="cls-1" d="M212.42,106.39h2.63v25H190.19a31.43,31.43,0,0,1-30.76-25Z"/><path class="cls-1" d="M150.08,163.58h-34.8a31.43,31.43,0,0,1-31.43-31.43h34.79A31.44,31.44,0,0,1,150.08,163.58Z"/><path class="cls-1" d="M68.19,192.41H40.85a24.7,24.7,0,0,1-24.71-24.7H43.49A24.7,24.7,0,0,1,68.19,192.41Z"/><polygon class="cls-1" points="215.05 148.23 215.05 179.83 202.57 179.77 179.89 305.3 147.84 305.3 176.33 148.23 215.05 148.23"/><polygon class="cls-1" points="151.95 179.87 146.03 211.51 118.09 211.51 100.72 305.3 68.7 305.3 91.49 179.7 151.95 179.87"/><polygon class="cls-1" points="60.63 243.6 41.72 243.6 30.59 305.3 16.14 305.3 16.14 211.51 66.45 211.51 60.63 243.6"/><path class="cls-2" d="M3.27,93.52V318.17H227.92V93.52Zm146.81,70.06h-34.8a31.43,31.43,0,0,1-31.43-31.43h34.79A31.44,31.44,0,0,1,150.08,163.58Zm65-32.2H190.19a31.43,31.43,0,0,1-30.76-25h55.62v25ZM147.84,305.3l28.49-157.07h38.72v31.6l-12.48-.06L179.89,305.3Zm-79.14,0L91.49,179.7l60.46.17L146,211.51H118.09L100.72,305.3ZM16.14,211.51H66.45L60.63,243.6H41.72L30.59,305.3H16.14Zm0-43.8H43.49a24.7,24.7,0,0,1,24.7,24.7H40.85A24.7,24.7,0,0,1,16.14,167.71Z"/><path class="cls-2" d="M975.25,141.41a33,33,0,0,1,5.19-.39c2.72,0,4.56.44,5.82,1.51a4.77,4.77,0,0,1,1.62,3.77,5,5,0,0,1-3.41,4.72v.09c1.34.5,2.15,1.81,2.63,3.63a36.39,36.39,0,0,0,1.48,5.25H985a25.93,25.93,0,0,1-1.26-4.44c-.53-2.46-1.43-3.24-3.38-3.3h-1.73V160h-3.41Zm3.41,8.33h2c2.32,0,3.77-1.23,3.77-3.1,0-2.07-1.45-3-3.69-3a10.26,10.26,0,0,0-2.12.16Z"/><path class="cls-2" d="M981.91,167.62A17.11,17.11,0,1,1,999,150.5,17.14,17.14,0,0,1,981.91,167.62Zm0-32.23A15.12,15.12,0,1,0,997,150.5,15.13,15.13,0,0,0,981.91,135.39Z"/><path class="cls-3" d="M617.11,320.29V299.46a7.23,7.23,0,0,1,7.26-7.25h28.21v4.49H624.37a2.76,2.76,0,0,0-2.73,2.76v20.83a2.73,2.73,0,0,0,2.73,2.73h28.21v4.52H624.37A7.23,7.23,0,0,1,617.11,320.29Z"/><path class="cls-3" d="M659.75,321.3V307.07a6.25,6.25,0,0,1,6.24-6.24h22a6.26,6.26,0,0,1,6.25,6.24V321.3a6.26,6.26,0,0,1-6.25,6.24H666A6.25,6.25,0,0,1,659.75,321.3Zm4.52-14.23V321.3A1.71,1.71,0,0,0,666,323h22a1.7,1.7,0,0,0,1.72-1.72V307.07a1.69,1.69,0,0,0-1.72-1.72H666A1.7,1.7,0,0,0,664.27,307.07Z"/><path class="cls-3" d="M772.91,307.07a1.69,1.69,0,0,0-1.71-1.72H747.52v22.19H743V300.83H771.2a6.25,6.25,0,0,1,6.24,6.24v20.47h-4.53Z"/><path class="cls-3" d="M731.29,307.07a1.69,1.69,0,0,0-1.72-1.72H705.9v22.19h-4.53V300.83h28.2a6.26,6.26,0,0,1,6.25,6.24v20.47h-4.53Z"/><path class="cls-3" d="M784.61,321.3V307.07a6.25,6.25,0,0,1,6.25-6.24h22a6.25,6.25,0,0,1,6.24,6.24v9.38H795.47v-4.53h19.06v-4.85a1.69,1.69,0,0,0-1.71-1.72h-22a1.7,1.7,0,0,0-1.73,1.72V321.3a1.71,1.71,0,0,0,1.73,1.72h28.2v4.52h-28.2A6.25,6.25,0,0,1,784.61,321.3Z"/><path class="cls-3" d="M826.23,321.3V307.07a6.26,6.26,0,0,1,6.25-6.24h28.21v4.52H832.48a1.7,1.7,0,0,0-1.72,1.72V321.3a1.71,1.71,0,0,0,1.72,1.72h28.21v4.52H832.48A6.26,6.26,0,0,1,826.23,321.3Z"/><path class="cls-3" d="M867.86,321.3V295.84h4.52v5h10.94v4.52H872.38V321.3A1.71,1.71,0,0,0,874.1,323h11.23v4.52H874.1A6.25,6.25,0,0,1,867.86,321.3Z"/><path class="cls-3" d="M891.86,293.57h4.53v4.53h-4.53Zm0,7.26h4.53v26.71h-4.53Z"/><path class="cls-3" d="M933.44,307.07a1.69,1.69,0,0,0-1.72-1.72H908.05v22.19h-4.53V300.83h28.2a6.26,6.26,0,0,1,6.25,6.24v20.47h-4.53Z"/><path class="cls-3" d="M945.14,332.63h28.21a1.73,1.73,0,0,0,1.72-1.76V305.35H951.39a1.7,1.7,0,0,0-1.72,1.72v9.47a1.71,1.71,0,0,0,1.72,1.72H970v4.53H951.39a6.27,6.27,0,0,1-6.25-6.25v-9.47a6.26,6.26,0,0,1,6.25-6.24H979.6v30a6.27,6.27,0,0,1-6.25,6.25H945.14Z"/><path class="cls-2" d="M504.17,147.88a56.77,56.77,0,0,0-56.77,56.77v61h24.46v-61a32.31,32.31,0,0,1,64.62,0v61h24.46v-61A56.77,56.77,0,0,0,504.17,147.88Z"/><path class="cls-2" d="M859,265.61h24.46V172.34A24.46,24.46,0,0,0,859,147.88h0Z"/><path class="cls-2" d="M708,208.56c1,32.21,29.08,57.05,61.31,57.05h64.46V206.74H809.27v34.41h-41c-18,0-34-13.14-35.72-31a34.41,34.41,0,0,1,34.24-37.78h42.46a24.47,24.47,0,0,0,24.47-24.46H766.81A58.87,58.87,0,0,0,708,208.56Z"/><path class="cls-2" d="M934.16,241.15V172.34a24.46,24.46,0,0,0-24.46-24.46h0V265.61h69.9a24.46,24.46,0,0,0-24.47-24.46Z"/><path class="cls-2" d="M700.86,148.91H669.57l-61.75,77.45v-54a24.46,24.46,0,0,0-24.46-24.46h0V265.61h24.46l23.36-29.29,32,25.71h39.11l-55.9-44.84Z"/><path class="cls-2" d="M383.29,155.08l-32,40.1-32-40.1a19.11,19.11,0,0,0-14.95-7.2H282.32V265.61h24.46V178.56l35.78,44.88,17.68-.2,35.62-44.68v87.05h24.46V147.88H398.24A19.12,19.12,0,0,0,383.29,155.08Z"/><path class="cls-2" d="M503.57,203.18H528a0,0,0,0,1,0,0v34.15a9.49,9.49,0,0,1-9.49,9.49h-15a0,0,0,0,1,0,0V203.18A0,0,0,0,1,503.57,203.18Z" transform="translate(740.8 -290.81) rotate(90)"/></svg>